# xmcd CD database file
#
# Track frame offsets:
#	183
#	17640
#	32388
#	47235
#	61603
#	78743
#	100088
#	118240
#	134658
#	150955
#	160930
#	182820
#	195835
#	221098
#	235918
#	253360
#
# Disc length: 3566 seconds
#
# Revision: 0
# Processed by: cddbd v1.4PL0 Copyright (c) Steve Scherf et al.
# Submitted via: CDex 1.50
#
DISCID=d50dec10
DTITLE=Original Indigo - (Ne)tradicni jazz
DYEAR=1900
DGENRE=Jazz
TTITLE0=Jirina (Sweet Georgia Brown)
TTITLE1=Creole Love Call
TTITLE2=Cepice
TTITLE3=High Society
TTITLE4=Digga Digga Doo
TTITLE5=Svitani (All of Me) 
TTITLE6=Aleji (Sentimental Journey)
TTITLE7=Cinska ctvrt (China Town My China Town)
TTITLE8=Dopis (Rent Party Blues)
TTITLE9=Wild Cat Blues
TTITLE10=Basin Street Blues
TTITLE11=Kacaba (Chattanooga Choo Choo)
TTITLE12=Black and Blue
TTITLE13=Margie
TTITLE14=Dallas Blues
TTITLE15=Mood Indigo
EXTD=
EXTT0=
EXTT1=
EXTT2=
EXTT3=
EXTT4=
EXTT5=
EXTT6=
EXTT7=
EXTT8=
EXTT9=
EXTT10=
EXTT11=
EXTT12=
EXTT13=
EXTT14=
EXTT15=
PLAYORDER=
